<?xml version="1.0" encoding="UTF-8"?><svg id="a" xmlns="http://www.w3.org/2000/svg" viewBox="0 0 120 51.3"><defs><style>.b{fill:#4b7eba;}.c{fill:#92afb3;}.d{fill:#68c2d5;}.e{fill:#83ccdd;}.f{fill:#ad90aa;}.g{fill:#c5cbd9;}.h{fill:#7ec9da;}.i{fill:#62b8c8;}.j{fill:#90cee3;}.k{fill:#979696;}.l{fill:#69c1d1;}.m{fill:#5b4f85;}.n{fill:#d4d9e0;}.o{fill:#71c2d3;}.p{fill:#aabfbf;}.q{fill:#61beda;}.r{fill:#79c9db;}.s{fill:#9d87aa;}.t{fill:#bcd0dc;}.u{fill:#6c6398;}.v{fill:#393156;}.w{fill:#95d2de;}.x{fill:#a9d5e7;}.y{fill:#bcb3be;}</style></defs><path class="e" d="M54.29,25.76c.07,.66,.42,1.14,.94,1.52l-.1,.1c.21,.05,.43,.14,.64,.13,.55-.03,1.07,.04,1.61,.28-.11,.16-.16,.26-.24,.34-.32,.3-.66,.59-.98,.9-.08,.08-.09,.24-.13,.36-.16,.28-.34,.56-.48,.85-.16,.33-.14,.59,.22,.84,.42,.29,.48,.86,.21,1.26-.25,.36-.6,.46-1.02,.32-.24-.08-.58-.28-.72-.18-.3,.2-.51,.55-.76,.83-.02-.2,0-.43-.07-.6-.11-.25-.27-.49-.45-.69-.28-.29-.57-.59-.91-.8-.32-.2-.63-.64-.6-.92,.29-.06,.62-.03,.75-.18,.17-.21,.18-.55,.27-.89-.67,.02-.75-.49-.86-.99-.03-.16-.13-.3-.2-.44h0c.25-.32,.1-.66,.05-.99,0-.01-.06-.01-.09-.02-.18-2.01,.45-3.75,1.81-5.25l-.2-.16c-.27,.33-.54,.66-.81,1-.87,1.1-1.24,2.34-1.1,3.74l-.38-.52-.47,.77c.39,.28,.37,.59,.13,.94-.07,.11-.07,.27-.11,.4,.47,.1,.37,.57,.53,.86,.19,.35,.42,.76-.13,1.04-.05,.02-.04,.15-.05,.24l-.69-1.46c-.55-1.67-.88-3.37-.62-5.13,.34-1.81,1.18-3.35,2.45-4.7,.43-.46,.87-.62,1.45-.48h.01l.14,.04,.79,.63c.15-.18,.32-.38,.5-.59,.3-.33,.7-.57,1.11-.4,.31,.13,.59,.47,.73,.79,.22,.47-.11,.95-.64,1.08-.14,.04-.29,.04-.59,.07l.81,1.66-.46,.17c.56,.34,.56,.48,.04,.95-.09,.08-.19,.22-.18,.33,.04,.38-.16,.6-.43,.78-.81,.55-.92,1.31-.71,2.19Z"/><path class="h" d="M50.57,29.83c.02-.08,0-.21,.05-.24,.55-.29,.32-.69,.13-1.04-.16-.3-.06-.76-.53-.86,.03-.14,.03-.29,.11-.4,.23-.35,.26-.66-.13-.94l.47-.77,.38,.52c.02,.21,.02,.42,.06,.63,0,.03,.16,.03,.25,.05,.03,0,.09,0,.09,.02,.05,.33,.2,.67-.05,.99l-.08-.26-.1,.05,.17,.21c.07,.15,.17,.29,.2,.44,.11,.5,.19,1,.86,.99-.09,.35-.1,.69-.27,.89-.12,.15-.46,.12-.75,.18-.04,.28,.27,.72,.6,.92,.34,.21,.63,.51,.91,.8,.19,.2,.35,.44,.45,.69,.08,.18,.05,.4,.07,.6,0,.16-.01,.33,.03,.49,.22,.76,.2,.94-.44,1.34-.2,.13-.55,0-.84,0l-.63-.29h0l-.6-.4h0c-1.41-1.07-2.47-2.43-3.26-4-1.19-2.37-1.84-4.85-1.58-7.52,.06-.66,.2-1.31,.3-1.97,.02-.01,.03-.03,.02-.05l.07-.15c.53-1.43,1.27-2.72,2.34-3.82l.1-.1c.32-.3,.64-.58,.95-.89,.53-.53,1.18-.79,1.91-.89,.48-.06,.95,.2,1.12,.65,.16,.41,.07,.74-.31,.99-.36,.23-.61,.16-.84-.17-.04-.06-.12-.09-.29-.2-.02,.32-.07,.57-.03,.79,.07,.38,0,.66-.27,.96-1.03,1.16-1.84,2.44-2.14,3.99-.6,2.2-.23,4.3,.64,6.35l.79,1.8,.1-.05-.04-.31Z"/><path class="r" d="M43.35,26.45c-.26-1.33-.37-2.67-.32-4.03,.09-2.63,.97-4.96,2.71-6.93,.69-.78,1.49-1.47,2.24-2.2,.68-.53,1.4-.74,2.11-.28,.14,.31,.21,.6,.38,.8,.26,.31,.15,.44-.16,.59-.26,.13-.5,.31-.75,.47l-.79,.69s-.09,.05-.12,.09c-2.86,2.91-3.78,6.44-3.22,10.39,.31,2.17,1.22,4.14,2.44,5.97,1.26,1.89,2.87,3.38,4.8,4.54,.52,.31,.62,.86,.19,1.24-.21,.19-.56,.23-.85,.33-1.42-.78-2.69-1.76-3.88-2.86-.16-.15-.32-.29-.48-.44-.08-.1-.16-.21-.24-.31-1.43-1.63-2.61-3.42-3.3-5.49-.28-.85-.51-1.71-.76-2.57Z"/><path class="w" d="M56.03,29.38c.04-.12,.05-.28,.13-.36,.31-.31,.65-.6,.98-.9,.08-.08,.13-.18,.24-.34-.55-.24-1.06-.31-1.61-.28-.21,.01-.42-.08-.64-.13l.1-.1c.62,0,1.25,0,1.87,0,.25,0,.5,0,.74,.02,.16,.03,.32,.08,.48,.08,2.73,0,5.46,0,8.19,0,.16,0,.32-.05,.48-.08,1.19,0,2.38-.02,3.57,0,.64,0,1.03,.39,1.05,.97,.02,.61-.41,1.08-1.04,1.13-.38,.03-.77,.01-1.16,.02h-1c-.93,0-1.87-.02-2.8,0-1.85,.02-3.7,.06-5.55,.09-1.06,0-2.13,0-3.19-.02-.28,0-.56-.06-.84-.09Z"/><path class="r" d="M47.59,38.62c-.69-.65-1.39-1.29-2.07-1.95-.27-.26-.51-.56-.77-.84l-.09-.11c-.59-.91-1.18-1.82-1.77-2.74-.07-.11-.1-.24-.15-.35l1.37-.13h.23l1.18,1.54,.13,.18c.11,.15,.21,.3,.33,.44,1.07,1.24,2.13,2.49,3.58,3.31l1.81,1.09c.25,.39,.32,.81-.02,1.15-.37,.36-.85,.32-1.26,.07-.77-.47-1.5-1-2.25-1.5-.08-.05-.17-.1-.25-.16l-.02,.02,.02-.02Z"/><path class="w" d="M54.29,25.76c-.21-.87-.09-1.64,.71-2.19,.27-.18,.48-.4,.43-.78-.01-.1,.09-.24,.18-.33,.51-.47,.51-.6-.04-.95l.46-.17,6.24-.09c.47,.12,.39,.62,.61,.91,0,.23,0,.47,0,.7,0,.64-.03,.67-.68,.68-2.02,0-4.05,.07-6.07-.01-1.08-.05-1.85,.85-1.83,1.73,0,.17,0,.33,0,.5Z"/><path class="q" d="M97.63,35.7c-.44,0-.89-.01-1.33,0-.38,.02-.77,.1-1.15,.1-.21,0-.52-.04-.61-.17-.13-.19-.18-.53-.1-.73,.07-.17,.42-.35,.6-.32,.88,.16,1.74,.09,2.61-.08,.37-.07,.76,.3,.78,.68,.02,.35-.32,.62-.81,.53Z"/><path class="d" d="M92.25,17.14c.05-.78,.24-.95,1.02-.95,.2,0,.4-.02,.6-.04,.57-.06,1.02,.27,1.1,.84,.07,.49-.28,.86-.88,.93-.23,.02-.47,.03-.7,.04-.51,.04-.92-.1-1.14-.6v-.22Z"/><path class="r" d="M48.85,10.03c-.23-.08-.46-.1-.59-.22-.2-.18-.42-.41-.46-.65-.02-.14,.28-.4,.48-.48,.5-.2,1.03-.37,1.56-.49,.38-.09,.81,.22,.9,.62,.09,.41-.12,.69-.48,.82-.46,.17-.95,.27-1.41,.4Z"/><path class="d" d="M24.76,35.23c.15-.1,.29-.25,.46-.29,.26-.06,.57-.12,.8-.03,.3,.11,.51,.4,.4,.77-.09,.29-.68,.57-.97,.39-.45-.28-.81-.27-1.25,.02-.31,.21-.68,.06-.9-.28-.21-.33-.08-.61,.15-.86,.26-.28,.58-.31,.9-.08,.15,.1,.27,.23,.42,.36Z"/><path class="d" d="M23.87,16c.56,.63,1.09,.3,1.65,.18,.18-.04,.47,.24,.64,.44,.07,.08,0,.41-.09,.47-.21,.13-.53,.29-.73,.22-.48-.17-.89-.32-1.37,.02-.13,.09-.48,0-.65-.12-.13-.09-.23-.43-.16-.55,.15-.24,.42-.42,.69-.66Z"/><path class="o" d="M67.73,20.73c-.5-.01-.97-.46-.95-.91,.02-.54,.54-1,1.11-1,.53,0,.99,.46,1,.99,0,.41-.65,.93-1.16,.92Z"/><path class="s" d="M83.03,11.67c.52,0,.85,.38,.85,.96,0,.57-.43,1.04-.94,1.05-.46,0-.97-.54-.97-1.04,0-.55,.47-.98,1.06-.97Z"/><path class="j" d="M81.97,26.31c-.44,.27-.84,.27-1.21-.13-.3-.32-.43-.69-.21-1.09,.21-.4,.56-.61,1.04-.54,.51,.08,.76,.46,.81,1.21l-.42,.54Z"/><path class="o" d="M32.58,15.9l-.11-.1,.62-1.3,1.1-.03h.3l1.18,.1c-.39,.4-.34,1.04-.98,1.13l-2.12,.19Z"/><path class="q" d="M98.51,17.68c-.18-.03-.38-.08-.58-.1-.21-.01-.43,0-.65,.02-.18,.02-.42,.15-.52,.07-.2-.15-.33-.41-.49-.62,.26-.14,.6-.47,.76-.4,.56,.27,1.11,.08,1.66,.1,.27,.01,.62-.11,.67,.31,.05,.44-.26,.57-.64,.59-.07,0-.13,0-.22,.01Z"/><path class="u" d="M78.36,34.73c.15,0,.3-.02,.45,0,.2,.04,.53,.07,.55,.17,.06,.27,.07,.61-.03,.86-.14,.36-.79,.51-1.3,.35-.44-.13-.76-.36-.77-.9,0-.35,.11-.49,.45-.49,.22,0,.43,0,.65,0h0Z"/><path class="j" d="M78.93,24.55c.47-.01,.94,.48,.94,.99,0,.44-.45,.86-.94,.86-.48,0-.92-.4-.94-.87-.02-.5,.43-.97,.94-.99Z"/><path class="d" d="M82.19,17.19c0,.53-.42,.89-1.01,.88-.41,0-1.01-.51-1.01-.83,.01-.47,.58-.91,1.15-.9,.52,.01,.86,.34,.86,.84Z"/><path class="j" d="M84.05,26.38c-.5,0-.97-.48-.96-.97,0-.44,.49-.87,.96-.85,.48,.01,.98,.55,.96,1.05-.01,.4-.48,.78-.96,.77Z"/><path class="e" d="M50.6,42.52c.35,.28,.73,.47,.96,.78,.3,.41-.06,1.02-.58,.96-.44-.05-.89-.25-1.29-.47-.29-.16-.29-.51-.02-.72,.25-.2,.55-.33,.94-.54Z"/><path class="m" d="M92.72,34.63c.68,0,.9,.16,.91,.65,0,.55-.39,.94-.94,.94-.51,0-1.02-.44-1.01-.85,.02-.48,.39-.74,1.04-.74Z"/><path class="b" d="M99.7,25.53c0-.54,.38-.94,.89-.95,.46,0,.86,.41,.85,.87-.01,.52-.38,.94-.84,.95-.51,.01-.9-.37-.9-.87Z"/><path class="t" d="M77.27,25.47c0,.47-.36,.86-.84,.88-.41,.02-.96-.5-.98-.92-.02-.43,.44-.87,.92-.87,.53,0,.9,.37,.9,.92Z"/><path class="n" d="M57.37,25.18c.07,.47-.15,.87-.56,1.04-.42,.18-.85,.06-1.11-.3-.3-.42-.27-.78,.13-1.26,.69-.24,1.05-.12,1.54,.52Z"/><path class="q" d="M96.85,25.47c.01,.45-.43,.9-.89,.91-.41,0-.88-.44-.89-.85-.02-.42,.5-.95,.93-.94,.42,0,.84,.45,.86,.89Z"/><path class="y" d="M86.84,21.04c.11,.27,.32,.52,.01,.8-.33,.31-1.01,.38-1.5,.17-.32-.14-.32-.38-.28-.65,.35-1,.94-1.11,1.76-.32Z"/><path class="j" d="M85.78,25.55c0-.45,.49-.98,.92-.97,.4,0,.87,.53,.86,.97,0,.38-.48,.8-.89,.8-.42,0-.89-.42-.89-.8Z"/><path class="y" d="M88.8,17.85c-.52-.02-.88-.36-.87-.83,0-.49,.52-.9,1.08-.87,.38,.02,.74,.41,.73,.81-.01,.51-.43,.91-.93,.89Z"/><path class="n" d="M59.58,25.08c.18,.41,.06,.74-.26,1.02-.29,.26-.63,.3-.97,.11-.39-.22-.61-.56-.49-1.03,.24-.45,.62-.65,1.13-.6,.2,.17,.41,.34,.61,.5h-.02Z"/><path class="s" d="M96.22,21.5c0,.38-.42,.72-.88,.71-.5-.01-.95-.36-.95-.72,0-.51,.47-.98,.96-.97,.49,.02,.87,.45,.87,.98Z"/><path class="b" d="M99.36,31.52c-.48,0-.86-.32-.88-.76-.02-.46,.44-.95,.91-.96,.38-.01,.89,.47,.9,.85,.02,.4-.47,.86-.93,.87Z"/><path class="y" d="M82.07,21.34c-.12,.68-1.1,1.12-1.65,.69-.16-.13-.17-.45-.25-.69,.17-.42,.4-.76,.92-.78,.54-.01,.77,.36,.98,.78Z"/><path class="b" d="M97.04,31.52c-.46,0-.85-.37-.85-.81,0-.46,.45-.91,.9-.91,.47,0,.84,.38,.84,.88,0,.47-.38,.83-.88,.84Z"/><path class="x" d="M71.13,17.71c-.27-.28-.68-.5-.39-.99,.29-.14,.58-.36,.89-.4,.26-.03,.64,.09,.8,.28,.15,.17,.19,.6,.07,.8-.13,.22-.47,.35-.75,.43-.18,.05-.41-.07-.62-.11Z"/><path class="n" d="M61.06,24.61c.13,.03,.3,.02,.38,.1,.23,.22,.57,.46,.58,.71,.02,.25-.25,.6-.49,.77-.32,.23-.75,.18-1-.13-.19-.24-.24-.58-.35-.88l.58-.55h.05l.04-.02h.21Z"/><path class="y" d="M89.45,21.54c-.33,.67-1.31,.86-1.75,.29-.13-.17-.03-.52-.03-.78l.17-.29,.1-.1c.82-.31,1.34,0,1.51,.87Z"/><path class="f" d="M84.52,21.54c-.33,.59-1.03,.8-1.61,.5-.33-.17-.34-.41-.25-.71,.16-.44,.4-.8,.92-.77,.59,.04,.77,.51,.94,.98Z"/><path class="d" d="M81.12,36.24c-.44-.01-.94-.54-.91-.96,.02-.4,.47-.76,.92-.74,.49,.03,.9,.45,.87,.91-.02,.4-.47,.8-.88,.79Z"/><path class="d" d="M35.09,37.04c-.12,0-.23-.01-.35-.02-.32,0-.64,0-.96,0l-.5,.03-.4-.42-.15-.59h2.36l.49,.93-.48,.07Z"/><path class="j" d="M88.22,25.45c0-.39,.46-.83,.85-.84,.43,0,.88,.46,.88,.92,0,.39-.52,.84-.96,.83-.34,0-.78-.52-.78-.91Z"/><path class="m" d="M101.57,31.42c-.39,0-.84-.4-.83-.74,0-.47,.44-.87,.97-.89,.5-.02,.8,.26,.82,.73,.01,.53-.37,.9-.95,.91Z"/><path class="g" d="M66.48,21.44c.01,.4-.4,.77-.87,.78-.48,.01-.94-.36-.95-.77,0-.41,.43-.8,.92-.82,.47-.02,.89,.35,.91,.81Z"/><path class="g" d="M74.79,20.96c.31,.67,.21,.98-.4,1.26-.28,.13-1.1-.17-1.23-.52-.07-.19,.04-.43,.06-.65,.69-.55,.96-.56,1.56-.09Z"/><path class="t" d="M79.5,21.03c.17,.32,.3,.63-.08,.92-.37,.29-.86,.34-1.3,.09-.32-.19-.42-.45-.29-.8,.43-.74,1.04-.81,1.67-.21Z"/><path class="h" d="M47.46,40.43c.35,.31,.7,.52,.88,.83,.09,.15-.08,.55-.24,.73-.31,.33-.7,.23-1.04-.01-.04-.03-.09-.05-.12-.09-.18-.24-.35-.49-.53-.74l1.05-.71Z"/><path class="n" d="M70.71,25.5c0,.44-.36,.76-.87,.77-.45,0-.94-.45-.94-.87,0-.38,.45-.74,.93-.74,.48,0,.88,.37,.88,.84Z"/><path class="q" d="M99.1,25.53c0,.45-.35,.83-.77,.83-.45,0-.86-.42-.85-.87,.01-.41,.45-.9,.8-.89,.39,0,.82,.5,.82,.93Z"/><path class="x" d="M65.77,26.22c-.74,.38-1.25-.09-1.26-.94,.28-.3,.48-.82,1.01-.59,.28,.12,.55,.41,.69,.69,.19,.39-.19,.61-.44,.84Z"/><path class="g" d="M72.63,21.24c.02,.59-.41,1-1.03,.97-.52-.03-.9-.44-.86-.94h0l.06-.13c.64-.72,1.18-.69,1.83,.09Z"/><path class="x" d="M68.22,36.23c-.44,0-.91-.41-.92-.81,0-.44,.44-.8,.97-.8,.39,0,.82,.39,.84,.78,.02,.41-.43,.82-.89,.83Z"/><path class="l" d="M33.58,34.84c.15,.02,.3,.06,.44,.05,.45-.06,.74,.11,.86,.56-.08,.09-.16,.26-.24,.27-.66,.04-1.32,.06-1.98,.04-.14,0-.27-.21-.4-.33l-.09-.52,1.01-.08h.4Z"/><path class="n" d="M62.88,22.16c-.22-.29-.14-.78-.61-.91,.11-.09,.23-.17,.32-.27,.31-.32,.72-.44,1.09-.24,.27,.15,.49,.46,.64,.75,.05,.09-.14,.44-.29,.49-.37,.12-.77,.13-1.15,.18Z"/><path class="n" d="M67.11,30.99c.02-.62,.27-.92,.79-.93,.69-.02,.96,.18,1.03,.73,.05,.46-.34,.83-.89,.81-.17,0-.35-.09-.52-.14l-.4-.47Z"/><path class="l" d="M31.25,31.6c.08-.06,.16-.19,.24-.19,.85-.01,1.7,0,2.57,0l.1,.79h-2.76l-.11-.31-.03-.29Z"/><path class="t" d="M76.83,20.75c.29,.29,.64,.58,.34,1.05-.23,.35-.95,.53-1.36,.33-.39-.19-.4-.52-.28-.89,.28-.56,.76-.61,1.3-.5Z"/><path class="x" d="M71.89,36.23c-.41,0-1-.49-.99-.84,0-.36,.49-.76,.93-.76,.45,0,.8,.34,.81,.77,.01,.45-.32,.82-.75,.83Z"/><path class="q" d="M93.62,26.28c-.44,0-.85-.34-.87-.73-.01-.35,.52-.9,.88-.91,.35-.01,.83,.49,.83,.87,0,.37-.44,.77-.84,.77Z"/><path class="j" d="M91.42,24.65c.4,0,.81,.43,.83,.86,.01,.37-.43,.79-.82,.79-.47,0-.8-.33-.81-.8,0-.46,.36-.85,.8-.85Z"/><path class="n" d="M64.25,25.17c.08,.65-.21,1.04-.79,1.05-.56,.02-.93-.42-.91-1.06,.03-.02,.03-.05,.03-.08l.19-.22c.81-.35,1.03-.31,1.48,.31Z"/><path class="x" d="M74,24.7c.34,0,.83,.47,.85,.81,.02,.35-.4,.74-.81,.75-.42,.02-.92-.44-.92-.83,0-.38,.42-.73,.88-.73Z"/><path class="u" d="M94.89,31.43c-.47-.01-.92-.42-.92-.82,0-.41,.45-.74,.98-.71,.44,.02,.77,.39,.75,.84-.02,.44-.34,.71-.81,.69Z"/><path class="u" d="M90.42,36.18c-.44,0-.8-.36-.78-.79,.01-.43,.38-.75,.84-.74,.44,.01,.85,.37,.86,.75,.01,.33-.52,.78-.91,.78Z"/><path class="g" d="M63.25,36.23c-.4,0-.78-.4-.78-.81,0-.41,.42-.75,.9-.74,.38,0,.79,.42,.77,.77-.02,.39-.46,.78-.89,.78Z"/><path class="x" d="M68.27,16.63c.23,.32,.08,.6-.09,.88-.32,.35-.75,.32-1.11,.17-.21-.09-.43-.41-.45-.64-.02-.18,.22-.46,.42-.58,.43-.25,.86-.2,1.22,.18Z"/><path class="t" d="M86.06,34.61c.41,0,.76,.36,.76,.77,0,.36-.42,.74-.81,.74-.46,0-.89-.33-.9-.7,0-.44,.44-.82,.95-.82Z"/><path class="l" d="M33.98,31l-2.88,.04v-.03h-.02v-.73h2.79l.11,.72Z"/><path class="j" d="M78.52,17.8c-.53-.03-.9-.39-.87-.83,.03-.4,.42-.68,.91-.66,.4,.02,.84,.45,.81,.8-.04,.37-.46,.72-.85,.69Z"/><path class="f" d="M89.64,30.73c0-.43,.41-.84,.84-.84,.4,0,.77,.37,.77,.77,0,.35-.51,.84-.88,.84-.33,0-.73-.42-.72-.77Z"/><path class="n" d="M62.67,30.31c.26-.08,.52-.2,.79-.21,.41-.02,.66,.27,.69,.65,.03,.38-.14,.71-.59,.77-.13,.02-.26,.04-.39,.07-.73-.29-.88-.67-.5-1.27Z"/><path class="x" d="M73.58,36.21c-.35,0-.71-.38-.72-.76-.01-.39,.39-.75,.84-.75,.37,0,.81,.37,.82,.68,.02,.33-.55,.84-.94,.84Z"/><path class="w" d="M73.95,12.75c.01,.4-.26,.66-.7,.68-.47,.02-.94-.34-.93-.72,0-.35,.48-.73,.95-.73,.38,0,.67,.33,.68,.77Z"/><path class="x" d="M67.48,24.67c.38,.01,.83,.47,.82,.82-.01,.36-.44,.7-.86,.68-.43-.02-.76-.36-.76-.77,0-.42,.36-.75,.79-.73Z"/><path class="m" d="M83.64,34.64c.42,0,.66,.28,.67,.76,0,.45-.22,.69-.66,.69-.47,0-.92-.33-.91-.68,0-.38,.47-.78,.91-.77Z"/><path class="g" d="M70.33,21.34c0,.55-.45,.88-1.22,.91-.16-.29-.46-.58-.44-.86,.01-.2,.41-.45,.68-.54,.44-.16,.75,.12,.98,.49Z"/><path class="x" d="M77.84,13.4c-.38,0-.79-.36-.8-.69,0-.39,.41-.72,.93-.71,.36,0,.69,.35,.68,.72,0,.31-.46,.69-.82,.69Z"/><path class="d" d="M18.19,24.37c.31-.08,.63-.25,.92-.21,.39,.06,.57,.51,.44,.87-.15,.43-.59,.66-1,.5-.12-.05-.23-.14-.34-.21l-.02-.95Z"/><path class="f" d="M75.9,36.11c-.38,0-.67-.33-.67-.74,0-.37,.37-.66,.8-.65,.39,0,.8,.35,.79,.64-.01,.28-.6,.75-.93,.75Z"/><path class="h" d="M51.3,13.2s-.03,0-.05,0c-.33-.15-.74-.22-.95-.47-.1-.12,.17-.56,.28-.86h0l.32-.19c.45,0,.69,.25,.82,.66,.13,.43-.14,.65-.43,.85Z"/><path class="u" d="M93.78,21.85c-.19,.09-.37,.24-.57,.27-.71,.11-1.34-.34-.87-1.1l.02-.02,.14-.16c.52,.02,1,.16,1.33,.6-.01,.14-.03,.27-.04,.41h0Z"/><path class="s" d="M66.29,35.45c0,.36-.38,.68-.79,.67-.4,0-.7-.31-.69-.71,0-.41,.36-.71,.82-.7,.38,.01,.68,.34,.67,.73Z"/><path class="c" d="M75.55,31.09l-.11-.69,.13-.3c.77-.38,1.23-.3,1.57,.3-.09,.15-.27,.32-.25,.46,.03,.25-.02,.43-.26,.41-.17-.01-.31-.21-.49-.29-.15-.07-.33-.1-.49-.12-.03,0-.07,.14-.1,.22Z"/><path class="h" d="M46.16,12.62c-.33,0-.67,0-.99-.03-.15-.02-.34-.09-.41-.2-.11-.19-.25-.47-.18-.62,.07-.15,.37-.24,.58-.29,.19-.04,.39,0,.59,.01,.3,.26,.75,.43,.59,.97l-.18,.17Z"/><path class="l" d="M87.29,31c-.1-.5,.11-.91,.57-1.09,.41-.16,.79,0,1.07,.42-.13,.24-.34,.42-.49,.64-.28,.4-.76,.1-1.15,.02Z"/><path class="e" d="M47.21,9.87c.23,.22,.54,.39,.66,.66,.11,.25-.4,.81-.66,.83-.33,.02-.93-.5-.91-.79,.02-.3,.43-.6,.91-.69Z"/><path class="x" d="M76.4,17.73c-.47,0-.81-.28-.8-.64,.02-.38,.37-.68,.79-.68,.4,0,.69,.3,.68,.7-.02,.42-.25,.63-.67,.62Z"/><path class="i" d="M73.52,30.03c.56-.34,.85-.33,1.25,.05,.02,.27,.03,.54,.05,.81-.69,.35-.67,.31-1.14,.05-.37-.2-.32-.48-.28-.79h.02v.04l.1-.15Z"/><path class="d" d="M23,30.8c.08-.78,.67-1.05,1.32-.6,.04,.28,.08,.55,.12,.83-.66,.53-.8,.52-1.42-.13l-.02-.1Z"/><path class="j" d="M86.16,17.75c-.4,0-.83-.33-.84-.64,0-.3,.41-.63,.79-.63,.36,0,.7,.31,.71,.65,0,.33-.3,.62-.66,.62Z"/><path class="o" d="M89.96,21.9l-.09-.16c.14-.96,.38-1.19,1.12-1.08l-.44,.29,.1,.39-.37,.09,.09,.16,.28-.24c.33,.07,.65,.14,.98,.22,.02,0,.03,.09,.04,.13-.33,.54-.86,.42-1.35,.44l-.17-.1h.01l-.11-.06-.09-.06Z"/><path class="k" d="M92.03,30.07c.52-.43,1.14-.38,1.5,.14-.02,.14-.04,.29-.08,.43-.08,.34-.34,.54-.65,.43-.28-.11-.51-.37-.76-.57h0l-.02-.43Z"/><path class="n" d="M63.28,16.33c.47-.16,.87,0,1.04,.41,.09,.21-.02,.66-.2,.78-.24,.17-.63,.13-.95,.18l.1-1.37Z"/><path class="d" d="M92.8,13.38c-.16-.21-.4-.4-.45-.64-.09-.36,.36-.81,.72-.8,.3,0,.61,.36,.6,.68,0,.32-.39,.67-.87,.76Z"/><path class="d" d="M86.41,40.07c-.24-.21-.41-.01-.6,.1-.27,.15-.53,.47-.89,.17-.25-.21-.48-.44-.2-.8,.28-.34,.62-.38,.95-.09,.06,.05,.11,.12,.16,.19,.18,.23,.38,.25,.58,.03v.41Z"/><path class="l" d="M86.41,40.07v-.41c.18-.48,.59-.5,.94-.35,.21,.09,.47,.46,.44,.66-.06,.37-.44,.53-.81,.46-.2-.04-.38-.23-.56-.35Z"/><path class="y" d="M66.9,12.96c-.14,.11-.33,.37-.59,.46-.3,.1-.79-.34-.68-.62,.11-.27,.35-.56,.61-.68,.28-.13,.64,.28,.66,.83Z"/><path class="y" d="M60.97,16.43c.3,.04,.57,.17,.6,.56,.03,.34-.28,.7-.62,.72-.34,.02-.68-.28-.7-.63-.02-.33,.3-.63,.72-.65Z"/><path class="d" d="M100.83,35.31c0,.36-.35,.73-.66,.68-.35-.05-.6-.25-.57-.64,.03-.38,.25-.66,.65-.72,.3-.04,.6,.32,.59,.68Z"/><path class="y" d="M97.71,21.04c.35,0,.79,.38,.65,.58-.17,.26-.49,.51-.78,.57-.29,.06-.61-.15-.62-.56,0-.32,.36-.6,.74-.59Z"/><path class="y" d="M74.3,17.7c-.57,0-.99-.3-.98-.61,.02-.43,.35-.53,.69-.56,.35-.03,.78,.3,.7,.55-.08,.26-.31,.48-.41,.62Z"/><path class="q" d="M29.81,36.69c.33-.28,.64-.64,.74-.59,.27,.14,.53,.42,.66,.7,.11,.22-.41,.72-.64,.61-.26-.12-.44-.4-.76-.72Z"/><path class="p" d="M92.05,30.5c.25,.19,.48,.46,.76,.57,.31,.11,.56-.08,.65-.43,.03-.14,.05-.28,.08-.43,.3,.54,.23,.89-.25,1.23-.39,.27-.93,.16-1.33-.28-.33-.36-.31-.66,.08-1.08l.02,.42-.02,.04,.02-.04Z"/><path class="y" d="M68.63,13.41c-.39-.04-.66-.22-.65-.62,0-.36,.19-.64,.57-.7,.28-.04,.63,.37,.61,.72-.02,.32-.16,.57-.53,.6Z"/><path class="d" d="M18.2,21.35c.47-.54,.9-.61,1.18-.2,.19,.29,.27,.6-.04,.85-.29,.22-.61,.25-.89-.04-.08-.08-.15-.17-.23-.26v-.35Z"/><path class="d" d="M31.28,13.72c-.03,.38-.26,.56-.62,.57-.3,0-.69-.42-.57-.68,.11-.25,.39-.55,.62-.57,.36-.03,.54,.31,.57,.68Z"/><path class="l" d="M91.36,12.65c0,.27-.43,.64-.7,.53-.22-.09-.48-.37-.52-.6-.05-.32,.19-.59,.57-.61,.34-.02,.65,.32,.65,.68Z"/><path class="d" d="M87.39,12.78c.02-.55,.24-.76,.59-.8,.25-.03,.65,.41,.62,.69-.05,.37-.33,.59-.66,.54-.23-.04-.43-.31-.56-.42Z"/><path class="o" d="M40.33,13.27l.18,.19h0l-.19,.38h0c-.38,.55-.9,.29-1.38,.25v-.8l.1-.03,.11-.04h0l.57,.04h.31l.3,.02Z"/><path class="y" d="M84.17,17.64c-.37-.05-.71-.18-.69-.59,.02-.41,.36-.49,.7-.47,.29,.02,.66,.03,.64,.46-.02,.39-.28,.57-.65,.6Z"/><path class="d" d="M27.22,35.6c.06-.38,.19-.68,.59-.71,.35-.02,.63,.23,.57,.52-.05,.24-.34,.52-.59,.61-.27,.09-.53-.11-.58-.43Z"/><path class="f" d="M100.32,22.16c-.43,.02-.74-.16-.67-.49,.05-.23,.37-.51,.62-.57,.32-.08,.64,.16,.64,.54,0,.39-.33,.49-.59,.52Z"/><path class="t" d="M73.4,30.15c-.04,.31-.09,.59,.28,.79,.47,.26,.45,.29,1.14-.05-.02-.27-.03-.54-.05-.81l.25,.32c.18,1.02-.58,1.34-1.64,.99-.3-.42-.4-.83,.02-1.23Z"/><path class="c" d="M82.48,30.79c.1-.35,.16-.72,.6-.81h.64v-.02l.12,.1v-.02c-.02,.23,.02,.52-.1,.66-.18,.19-.49,.26-.74,.39l-.52-.31Z"/><path class="d" d="M88.72,35.19c-.08,.47-.39,.82-.72,.72-.2-.06-.44-.34-.46-.53-.03-.33,.19-.66,.57-.62,.22,.02,.41,.28,.61,.43Z"/><path class="x" d="M72.04,24.85l.57,.66c-.21,.17-.4,.48-.62,.49-.23,.01-.49-.23-.7-.41-.07-.06,.01-.28,.03-.43,.28-.02,.72,.35,.72-.31Z"/><path class="c" d="M84.92,30.4c.41-.6,.85-.69,1.4-.31l.11,.31v.19c-.66,.37-1.02,.33-1.51-.19Z"/><path class="t" d="M64.78,17.07c.11-.44,.28-.61,.64-.58,.34,.02,.56,.2,.53,.52-.02,.32-.21,.67-.59,.58-.22-.05-.39-.34-.58-.52Z"/><path class="t" d="M69.88,16.53c.08,.11,.23,.22,.21,.32-.03,.23-.09,.49-.22,.67-.07,.1-.39,.18-.46,.11-.15-.14-.24-.37-.31-.57-.03-.1,.03-.22,.05-.34l.72-.2Z"/><path class="k" d="M78.5,29.95c.42-.21,.61,.15,.87,.35v.9h0c-.23-.04-.62,0-.67-.12-.14-.35-.15-.75-.21-1.14Z"/><path class="t" d="M72.17,30.17c.31,.46,.26,.96-.12,1.22-.36,.25-1.09,.18-1.33-.14-.07-.09-.06-.24-.08-.36,.23-.03,.46-.06,.69-.09l.28,.37c.14-.25,.69-.03,.62-.53-.02-.16-.03-.32-.05-.48Z"/><path class="t" d="M87.29,31c.39,.08,.87,.38,1.15-.02,.15-.22,.37-.4,.49-.64,.25,.53,.18,.85-.26,1.08-.55,.29-1.05,.14-1.39-.41Z"/><path class="j" d="M80.58,12.03c.13,.26,.33,.52,.36,.79,.01,.14-.29,.31-.45,.47-.15-.18-.41-.36-.42-.55-.02-.23,.18-.47,.28-.7h.23Z"/><path class="k" d="M77.74,39.28c.24,.29,.47,.46,.53,.67,.03,.1-.29,.42-.42,.4-.21-.03-.48-.22-.56-.41-.04-.12,.23-.36,.45-.66Z"/><path class="x" d="M66.99,27.29c-.16,.03-.32,.08-.48,.08-2.73,0-5.46,0-8.19,0-.16,0-.32-.06-.48-.08,3.05,0,6.1,0,9.15,0Z"/><path class="i" d="M71.32,30.8c-.23,.03-.46,.06-.69,.09v-.5l.08-.11h0l.21-.21h0c.08,0,.16-.02,.24-.04,.3-.07,.66-.12,.74,.26,.09,.4-.26,.47-.57,.51Z"/><path class="c" d="M80.48,30.06c.36-.26,.71-.31,1.04,.05,.02,.1,.04,.19,.06,.29v.2l-.47,.31c-.83-.34-.67-.2-.63-.85Z"/><path class="l" d="M27.99,16.17c.14,.18,.42,.4,.39,.54-.06,.23-.32,.4-.5,.6-.15-.17-.4-.34-.41-.52-.01-.2,.19-.41,.3-.62h.22Z"/><path class="v" d="M18.59,27.58c.1,0,.2,0,.3,0,.48,.06,.56,.29,.3,.8-.34,.47-.57,.05-.8-.12-.17-.13-.36-.32,0-.48l.2-.19h0Z"/><path class="o" d="M34.8,12.66c-.16-.3-.22-.6,.13-.81,.41-.24,.62,.05,.85,.32-.06,.17-.12,.34-.19,.5l-.7,.03-.09-.04Z"/><path class="p" d="M80.48,30.06c-.04,.65-.19,.5,.63,.85,.16-.1,.32-.2,.48-.31,.09,.5-.23,.64-.61,.62-.3-.02-.6-.15-.9-.23l-.08-.1v-.3l.48-.54Z"/><path class="k" d="M92.25,17.14v.22c-.71,0-1.42,0-2.2,0,.27-.34,1.7-.43,2.2-.22Z"/><path class="o" d="M39.27,43.6c-.34,.23-.59,.5-.69,.45-.22-.1-.36-.37-.54-.56,.18-.14,.36-.39,.53-.38,.19,0,.37,.25,.7,.5Z"/><path class="q" d="M44.22,43.35c-.3,.24-.51,.52-.68,.5-.19-.02-.35-.32-.52-.49,.19-.16,.36-.4,.58-.45,.13-.03,.33,.22,.62,.44Z"/><path class="i" d="M91.67,21.69s-.02-.13-.04-.13c-.32-.08-.65-.15-.98-.22h0l-.1-.4,.44-.29c.59,.14,.78,.42,.69,1.03Z"/><path class="d" d="M85.84,13.32c-.21-.31-.44-.51-.41-.64,.06-.21,.29-.37,.45-.55,.17,.16,.47,.33,.47,.5,0,.19-.26,.38-.51,.69Z"/><path class="o" d="M44.25,9c-.33,.21-.55,.46-.7,.43-.2-.05-.35-.32-.52-.49,.17-.16,.34-.45,.51-.44,.19,0,.38,.26,.7,.51Z"/><path class="p" d="M84.92,30.4c.49,.52,.85,.56,1.52,.19,.03,.13,.06,.25,.08,.38-.44,.06-.85,.42-1.34,.13-.05-.03-.18,.06-.28,.09-.26-.26-.34-.53,0-.79Z"/><path class="t" d="M76.61,12.64l-.57,.6c-.13-.17-.39-.36-.37-.51,.03-.21,.27-.39,.42-.59l.53,.49Z"/><path class="t" d="M70.07,34.78c.14,.19,.41,.4,.39,.57-.03,.19-.31,.45-.5,.48-.38,.05-.36-.32-.33-.56,.02-.16,.16-.31,.24-.47h.21Z"/><path class="t" d="M84.91,31.19c.09-.03,.22-.12,.28-.09,.48,.29,.89-.06,1.34-.13-.03-.13-.06-.25-.08-.38,0-.06,0-.13-.01-.19h.18c.25,.56,.04,1.02-.55,1.09-.41,.05-.87,.18-1.14-.31Z"/><path class="d" d="M40.28,41.34c-.28,.22-.45,.47-.65,.49-.14,.02-.32-.26-.48-.41,.21-.19,.4-.4,.64-.53,.05-.03,.27,.24,.5,.45Z"/><path class="t" d="M80.08,31c.3,.08,.59,.21,.9,.23,.39,.02,.7-.13,.61-.62v-.2l.09-.1c.31,.51,.2,.92-.32,1.17-.57,.27-1.05,.1-1.28-.46Z"/><path class="w" d="M70.82,13.35c-.43-.33-.5-.69-.18-1.04,.28-.31,.57-.39,.87-.02-.41,.19-.82,.39-.43,.94l-.26,.12Z"/><path class="g" d="M63.28,16.33l-.1,1.37c-.42-.08-.58-.4-.58-.76,0-.39,.34-.53,.68-.61Z"/><path class="p" d="M82.99,31.1c.25-.12,.56-.2,.74-.39,.13-.14,.08-.44,.12-.66,.39,.28,.61,.62,.35,1.1-.08,0-.18-.03-.24,0-.34,.19-.66,.22-.96-.06Z"/><path class="o" d="M35.86,41.51c-.34,.18-.54,.36-.72,.35-.13,0-.36-.33-.32-.42,.08-.19,.29-.39,.48-.45,.09-.03,.28,.25,.56,.53Z"/><path class="p" d="M71.32,30.8c.31-.04,.66-.11,.57-.51-.09-.38-.44-.32-.74-.26-.08,.02-.16,.03-.24,.05,.41-.31,.82-.36,1.22,.02l.05,.07h0c.02,.16,.02,.32,.05,.48,.07,.5-.48,.28-.62,.53l-.28-.37Z"/><path class="d" d="M89.25,39.85c.28-.18,.45-.37,.61-.37,.13,0,.39,.31,.35,.38-.08,.19-.27,.37-.46,.47-.06,.03-.26-.24-.5-.48Z"/><path class="t" d="M70.82,13.35l.26-.12c-.39-.55,.02-.75,.43-.94,.02,.29,.13,.62,.01,.84-.08,.15-.46,.15-.71,.22Z"/><path class="q" d="M39.55,11.79c.12,0,.24,0,.35-.01l.11,.1h0s0,.05,0,.08l.1,.43-.11,.18-.1,.04-.79-.15v-.18l.21-.38,.22-.12Z"/><path class="i" d="M91.21,40.48c-.18-.3-.36-.45-.34-.59,.02-.15,.21-.29,.33-.43,.15,.14,.37,.26,.43,.44,.03,.1-.19,.28-.41,.57Z"/><path class="i" d="M96.46,12.54c-.22,.19-.39,.42-.48,.39-.16-.05-.36-.25-.37-.4-.01-.13,.21-.29,.32-.43l.53,.44Z"/><path class="i" d="M81.17,39.91c-.27,.16-.43,.33-.53,.3-.14-.04-.31-.22-.33-.36-.01-.1,.21-.32,.32-.32,.14,0,.28,.18,.54,.37Z"/><path class="t" d="M82.99,31.1c.3,.28,.62,.25,.96,.06,.06-.04,.16,0,.24,0-.31,.37-.72,.47-1.17,.35-.39-.11-.49-.24-.54-.71l.52,.31Z"/><path class="e" d="M40.69,40.2c.16,.2,.35,.36,.32,.42-.06,.14-.24,.34-.36,.33-.15-.01-.28-.21-.43-.32l.47-.43Z"/><path class="q" d="M29.77,33.56c-.12-.24-.25-.38-.23-.49,.03-.14,.18-.25,.28-.37,.11,.13,.3,.24,.31,.38,0,.12-.18,.25-.36,.48Z"/><path class="m" d="M93.82,21.44c-.34-.44-.81-.57-1.33-.6,.57-.45,1.16-.19,1.33,.6Z"/><path class="i" d="M22.03,35.38c-.21,.15-.33,.28-.48,.33-.05,.02-.25-.2-.23-.27,.04-.14,.18-.26,.27-.39l.44,.33Z"/><path class="i" d="M39.7,39.26c.13,.68,.07,.72-.64,.49l.64-.49Z"/><path class="i" d="M39.44,10.54s.04,.07,.03,.09c-.05,.15-.1,.32-.19,.45-.02,.03-.2-.04-.3-.06l.13-.49h.33Z"/><path class="o" d="M31.6,12.42l.09-.58c.12,.06,.35,.14,.35,.17-.04,.17-.13,.32-.2,.48l-.23-.07Z"/><path class="o" d="M40.93,11c-.34,.05-.49-.06-.36-.41h.5l-.14,.41Z"/><path class="w" d="M36.39,9.52l-.36,.39c-.08-.1-.22-.21-.22-.31,0-.1,.13-.24,.23-.29,.05-.03,.18,.1,.34,.2Z"/><path class="c" d="M29.98,34.85l.2-.51c.09,.04,.27,.11,.26,.13-.05,.17-.12,.33-.19,.5l-.27-.11Z"/><path class="h" d="M72.04,24.85c0,.67-.44,.29-.72,.31,.16-.29,.34-.52,.72-.31Z"/><path class="y" d="M79.37,31.2l-.02-.8,.11,.09-.09,.71Z"/><path class="p" d="M86.6,30.4h-.18l-.11-.31,.29,.31Z"/><path class="p" d="M83.72,29.98h0Z"/><path class="p" d="M81.68,30.3l-.1,.1c-.02-.1-.04-.19-.06-.29,.06,.06,.11,.12,.16,.19Z"/><path class="p" d="M70.91,30.07l-.21,.22,.21-.22Z"/><path class="p" d="M70.71,30.28l-.07,.11,.07-.11Z"/><polygon class="m" points="92.35 21.01 92.33 21.03 92.33 21 92.35 21.01"/><path class="t" d="M73.52,30.03l-.11,.15,.11-.15Z"/><path class="t" d="M72.17,30.17l-.05-.07s.05,.03,.05,.07Z"/><path class="p" d="M83.84,30.06l-.13-.1,.13,.1Z"/><polygon class="m" points="93.78 21.85 93.78 21.85 93.79 21.86 93.78 21.85"/><path class="r" d="M30.37,24.06c.04,1.51,.04,1.51-1.42,1.51-2.48,0-4.96,.01-7.44,.01-.38,0-.86,.15-.91-.47-.04-.51,.38-1.06,.86-1.14,.08-.01,.17,0,.25,0,2.81,.02,5.63,.04,8.44,.06,.06,0,.13,.02,.22,.04Z"/><path class="d" d="M26.44,26.76c.27,.01,.54,0,.8,.04,.48,.07,.76,.43,.71,.87-.06,.55-.25,.71-.81,.71-1.6,0-3.21-.02-4.81,0-.48,0-.75-.21-.8-.63-.06-.43,.21-.72,.63-.82,.29-.07,.58-.1,.88-.14l3.41-.03Z"/><path class="d" d="M26.44,22.09c-.64-.05-1.29-.1-1.94-.13-.14,0-.28,.08-.42,.13-.34,.13-.65,.06-.85-.23-.1-.15-.14-.47-.05-.58,.17-.2,.49-.47,.7-.43,1.27,.24,2.53-.02,3.79,.08,.07,0,.13,0,.2,0,.51,.05,.74,.27,.72,.66-.04,.51-.43,.42-.75,.44-.47,.02-.94,0-1.4,0v.05Z"/><path class="q" d="M24.44,31.03c-.04-.28-.08-.55-.12-.83,1.13-.04,2.26-.07,3.39-.11,.17,0,.34-.03,.5,0,.33,.05,.66,.19,.62,.58-.04,.37-.32,.56-.71,.55-.9-.01-1.8-.01-2.7-.02-.13,0-.27,0-.4,.01l-.19-.02-.4-.16Z"/><path class="i" d="M42.21,24.41h-5.14c.11-.29,.2-.52,.29-.74h.4c.34-.01,.68-.02,1.02-.03h3.36l.07,.12,.03,.59s-.03,.03-.03,.05Z"/><path class="l" d="M37.31,23.37l-.09-.23,.08-.48c.13-.04,.27-.11,.4-.12,1.38-.03,2.77-.05,4.15-.07,.43,0,.49,.16,.29,.77l-.2,.03h-.4l-2.11-.02-.71,.11h-1.31s-.06,0-.09,0Z"/><path class="h" d="M41.03,15.7l.72-1.29c.94,.02,1.87,.04,2.81,.07-.02,.12,0,.25-.06,.34-.17,.3-.37,.59-.55,.88-.97,0-1.95,0-2.92,0Z"/><path class="d" d="M37.41,22.14l.14-.74h4.66c.09,.74,.08,.74-.68,.74-1.35,0-2.71,0-4.12,0Z"/><path class="h" d="M42.95,12.79c.54,.06,1.08,.12,1.62,.18,.43,.05,.86,.08,1.28,.13-.29,.36-.59,.72-.88,1.08-.09-.03-.18-.08-.27-.09-.82-.04-1.65-.06-2.47-.1l.07-.31,.04-.09,.59-.81Z"/><path class="r" d="M39.71,14.51l-.02,.27-.68,1.01-.7-.08-1.9,.06c.23-.38,.44-.77,.69-1.13,.07-.1,.28-.14,.42-.14,.7-.02,1.39,0,2.09-.01,.03,.01,.06,.02,.09,.03Z"/><path class="o" d="M39.84,18.38l.08-.37s.03-.04,.02-.07l.06-.12,.03-.21c.13-.24,.29-.29,.59-.27,.87,.06,1.75,.02,2.71,.02l-.38,1.05c-1.03,0-2.07-.02-3.1-.03Z"/><path class="d" d="M42.83,18.83l-.29,.89h-2.72l-.5-.04c.15-.33,.28-.61,.41-.9,1.04,.02,2.07,.03,3.11,.05Z"/><path class="d" d="M42.53,20.15q.01,.81-.79,.81c-.87,0-1.74,0-2.61,0q-.08-.78,.98-.85l2.41,.04Z"/><path class="o" d="M38.42,17.41c-.34,.99-.34,.99-1.27,.98-.63,0-1.26,0-1.9,0,.19-.96,.19-.97,1.04-.98,.7,0,1.4,0,2.14,0Z"/><path class="o" d="M34.29,21.03l.24-.88h2.89l-.11,.88h-3.02Z"/><path class="l" d="M34.13,18.4s-.04,0-.05,.03l-2.51-.03s0-.07,0-.1q.19-.89,1.09-.88c.57,0,1.14,0,1.75,0l-.14,.69h0l-.14,.29Z"/><path class="d" d="M35.5,19.74h-.74c-.02-.06-.05-.09-.04-.11,.27-.82,.27-.82,1.12-.82,.52,0,1.03,.02,1.55,.03,.13,0,.26,.04,.39,.06,.1,.68-.01,.81-.68,.82-.27,0-.53,0-.8,.01h-.81Z"/><path class="l" d="M34.02,20.17l-.13,.85h-2.8v-.85h2.94Z"/><path class="r" d="M43.74,16.11c-.23,.85-.23,.85-1.06,.83-.74-.01-1.49,0-2.26,0,.16-.34,.11-.84,.7-.85l2.61,.02Z"/><path class="l" d="M31.37,19.72l.09-.91h1.61l.97,.04v.88h-2.48l-.2-.02Z"/><path class="l" d="M36.3,21.34l.9,.04-.09,.76-.6,.02h-2.47l.08-.72,1-.09h1.18Z"/><path class="d" d="M30.44,26.97l.13,1.4c-.46,0-.89,.08-1.27-.03-.25-.07-.53-.36-.61-.61-.05-.15,.23-.54,.43-.6,.4-.13,.86-.11,1.32-.15Z"/><path class="d" d="M38.51,16.09l.37,.04c-.06,.19-.08,.38-.17,.53-.08,.12-.24,.26-.36,.27-.83,.02-1.66,.01-2.53,.01l.28-.73c.47-.04,.94-.07,1.41-.11h1Z"/><path class="l" d="M30.97,22.15c0-.69,0-.7,.67-.73,.68-.04,1.36-.05,2.04-.07,.04,.26,.09,.51,.13,.8h-2.84Z"/><path class="d" d="M19.81,30.99c-.1-.42,.05-.72,.42-.91,.39-.21,.78-.17,1.14,.06,.33,.22,.37,.59,.11,.9-.45,.55-1.03,.54-1.66-.05h0Z"/><path class="l" d="M30.87,28.09l2.69-.12,.13,.81c-.96,0-1.89,0-2.81,0v-.69Z"/><path class="i" d="M30.87,23.76h2.6v.7c-.87,0-1.73,0-2.59,0l-.02-.5,.02-.2Z"/><path class="l" d="M33.89,16.1h.9l-.12,.83h-2.63l.24-.73,1.61-.1Z"/><path class="l" d="M30.95,29.18c.75,0,1.5,0,2.25,0,.63,0,.64,0,.56,.67l-.57,.05-1.31,.02h-.8l-.12-.72Z"/><path class="i" d="M32.68,25.88c.08,.01,.16,.03,.25,.03q.54,.02,.53,.63l-2.59,.13-.4-.12,.08-.08,.32-.45-.06-.14h1.87Z"/><path class="l" d="M32.27,22.5h1.42l-.08,.64-.34,.14-2.23,.05-.17-.02-.08-.2,.15-.58,.13-.05,.39,.02h.81Z"/><path class="l" d="M30.85,27.38l.02-.38c.73,0,1.43,0,2.13,0,.55,0,.56,.03,.56,.76-.87,0-1.75,0-2.62,0l-.09-.38Z"/><path class="l" d="M30.88,24.88h2.52v.64l-.52,.04c-.54,0-1.08,.02-1.62,0-.14,0-.28-.12-.41-.19v-.2l.04-.28Z"/><path class="r" d="M40.84,28.78l-.1-.71c.59,0,1.19-.06,1.76,.02,.4,.05,.31,.47,.3,.77h-.05l-1.83-.04-.09-.05Z"/><path class="o" d="M42.33,26.56h-1.9c-.03-.22-.06-.44-.1-.67h.59c.34,0,.69,0,1.03,.02,.12,0,.23,.07,.35,.11l.02,.54Z"/><path class="q" d="M42.54,27.68h-1.88l-.12-.71c.58,0,1.12-.02,1.67,.01,.12,0,.22,.18,.34,.28v.41Z"/><path class="d" d="M21.34,22.3c-.25-.34-.49-.52-.52-.73-.04-.33,.15-.63,.54-.62,.39,0,.57,.32,.54,.64-.02,.2-.29,.38-.56,.71Z"/><path class="o" d="M34.68,13.5v.58h-1.19l.72-1.25,.47,.67h0Z"/><path class="o" d="M35.18,13.75c-.06-.54,.34-.45,.64-.48,.24-.03,.52,.03,.42,.3-.09,.25-.34,.52-.59,.61-.27,.1-.51-.09-.47-.44Z"/><path class="d" d="M38.63,8.46c.08,.19,.28,.44,.22,.55-.11,.19-.37,.4-.57,.39-.31-.01-.48-.28-.37-.62,.04-.14,.14-.26,.22-.38l.51,.07Z"/><path class="e" d="M40.13,12.4l-.1-.43h.09c.19-.03,.38-.1,.56-.08,.17,.02,.43,.1,.48,.22,.05,.13-.07,.38-.2,.48-.12,.1-.35,.08-.52,.07-.07,0-.14-.12-.21-.19l-.1-.08Z"/><path class="q" d="M37.84,13.3l.52-.27,.14,1.06-.79,.03-.19-.06,.32-.76Z"/><path class="q" d="M38.74,20.25l.07,.72c-.76,.13-.8,.09-.67-.72h.6Z"/><path class="d" d="M30.46,25.98l.09,.5-.08,.08-.77,.04v-.61h.77Z"/><path class="i" d="M29.72,22.36l-.21,.56-.43-.11s.01-.05-.02-.07c.02-.46,.34-.41,.65-.38Z"/><path class="i" d="M30.47,29.19v.71c-.52,.05-.26-.38-.35-.6l.35-.11Z"/><path class="e" d="M51.39,27.78l-.17-.21,.1-.05,.08,.26h0Z"/><path class="l" d="M44.04,36.84c-.06,.05-.13,.15-.19,.15-.68,.01-1.37,.05-2.05,0-.54-.04-.63-.57-.84-.95,.7,0,1.4,0,2.09,0,.54,0,.68,.51,.99,.8Z"/><path class="l" d="M37.52,30.99c-.03-.23-.06-.45-.09-.68,1.13,0,2.25,0,3.38-.01l.14,.73h-.83l-2.6-.04Z"/><path class="q" d="M38.77,35.76h-2.46l-.29-.88c.43,0,.81,0,1.18,0,.22,0,.43,.02,.65,.01,.76-.02,.82,.03,.92,.86Z"/><path class="d" d="M39.12,36.23l.37,.81c-.37-.03-.66-.05-.95-.07-.28-.01-.57-.02-.85-.02-.21,0-.55,.11-.6,.02-.18-.28-.26-.62-.38-.94,.65,0,1.31-.02,1.96,0,.15,0,.3,.13,.45,.19Z"/><path class="d" d="M37.4,31.42l.12,.77h-2.72l-.22-.73,.41-.07,2.41,.02Z"/><path class="d" d="M42.44,34.8l.72,.88c-.87,.05-1.6,.17-2.31,.1-.36-.03-.54-.48-.5-.93h1.79l.3-.04Z"/><path class="h" d="M45.56,40.17c-.74,.03-1.19-.36-1.42-1.3l.82-.21h.36c.1,.05,.21,.1,.31,.15,.62,.37,.59,.85-.08,1.36Z"/><path class="r" d="M34.39,31l-.13-.71c.89,0,1.74,0,2.59,0,.53,0,.27,.48,.43,.7h0c-.93,.03-1.86,.05-2.8,.08l-.11-.07Z"/><path class="o" d="M37.91,33.7l.44,.76h-2.6l-.24-.63c.19-.04,.38-.1,.58-.11,.61-.02,1.22-.02,1.83-.03Z"/><path class="l" d="M34.47,34.25c-.05,.08-.1,.22-.15,.22-.71,.03-1.43,.07-2.14,.02-.17-.01-.32-.36-.48-.55l.08-.15h2.47l.21,.45h0Z"/><path class="d" d="M31.45,32.81l.03-.2s.06,0,.09-.02h2.59l.04,.69-.73,.05h-1.87l-.14-.32-.02-.2Z"/><path class="r" d="M35.4,33.5l-.35-.9c.82,0,1.6-.02,2.37,.02,.14,0,.25,.32,.38,.49-.11,.04-.23,.1-.34,.12-.68,.1-1.37,.18-2.05,.27Z"/><path class="l" d="M41.41,32.2h-2.17l-.12-.81h1.6l.47,.04,.22,.77Z"/><path class="q" d="M39.44,33.31l-.16-.71c.73,0,1.41-.02,2.09,.02,.14,0,.26,.26,.38,.4l.08,.13s0,.05,.02,.07c-.8,.03-1.6,.07-2.41,.1Z"/><path class="d" d="M43.07,31.32c.9-.12,.99,.65,1.29,1.19h-.23c-.15-.1-.29-.26-.44-.27-.34-.03-.69,0-1.03,.02-.25-.23-.53-.46-.31-.86l.73-.07Z"/><path class="d" d="M42.14,33.92l.26,.46c-.8,.04-1.54,.09-2.28,.11-.09,0-.19-.18-.28-.27,.19-.07,.38-.17,.57-.19,.57-.05,1.15-.07,1.72-.11Z"/><path class="o" d="M41.94,30.49l.2-.21c.32,0,.65-.05,.94,.03,.17,.04,.29,.29,.4,.46,.01,.02-.15,.16-.23,.24l-.91,.1-.31-.31v-.1l-.08-.2Z"/><path class="i" d="M39.83,33.7l2.11-.03,.2,.25c-.57,.03-1.15,.05-1.72,.11-.19,.02-.38,.13-.57,.19v-.52Z"/><path class="o" d="M35.09,37.34c.53-.06,.9,.12,1.07,.75h-1.07v-.75Z"/><path class="o" d="M33.5,37.45l.79-.12s.05,.03,.08,.02v.69h0l-.1,.11c-.55,.09-.7-.26-.78-.7Z"/><path class="q" d="M35.91,38.96s.03-.01,.05,0c.2,.06,.4,.13,.6,.19l-.36,.56-.19-.04-.13-.62s.03-.05,.03-.09Z"/><path class="x" d="M38.7,31.49v.61c-.19,0-.38,.02-.57-.01-.05-.01-.12-.28-.1-.29,.18-.11,.38-.18,.67-.3Z"/><path class="h" d="M44.68,38.14h-1.95l-.05,.14-.75-.83,.05-.17c.72,0,1.45-.05,2.16,.03,.23,.03,.41,.42,.61,.65l-.08,.17Z"/><path class="r" d="M38.6,37.38c-.07,.28-.06,.65-.22,.73-.36,.21-.61,0-.92-.73h1.13Z"/><path class="d" d="M41.05,29.88l-.03-.64,1.02-.06c.12,0,.24,.03,.35,.01,.54-.11,.71,.18,.76,.69h-2.1Z"/><path class="n" d="M65.3,31.59c-.12-.11-.24-.23-.36-.35-.36-.36-.36-.57,0-.92,.29-.28,1.23-.32,1.43-.01,.14,.2,.26,.56,.17,.73-.13,.24-.44,.42-.71,.55-.14,.07-.36,0-.54,0h0Z"/><path class="y" d="M78.5,29.95c.06,.38,.07,.78,.21,1.14,.04,.11,.43,.08,.67,.11-.33,.35-1,.43-1.33,.17-.27-.22-.37-.84-.12-1.12,.13-.15,.38-.2,.58-.3Z"/><path class="y" d="M75.55,31.09c.03-.08,.08-.22,.1-.22,.17,.02,.34,.05,.49,.12,.17,.08,.32,.27,.49,.29,.24,.02,.29-.16,.26-.41-.01-.14,.16-.31,.25-.46,.2,.46,.1,.91-.24,1.07-.4,.19-1.18-.02-1.36-.38Z"/><path class="i" d="M90.65,21.34l-.28,.24-.09-.16,.37-.09h0Z"/><path class="k" d="M92.05,30.5l-.02,.04,.02-.04h0Z"/><path class="d" d="M39.72,28.81h-2.59c.04-.31,.08-.55,.12-.8h.05l.21-.02h2.91c.04,.27,.07,.54,.11,.81h-.8Z"/><path class="l" d="M37.81,29.17c.8,0,1.59,.01,2.39,.02,.54,0,.64,.13,.51,.69l-.89,.02h-2.5l-.05-.7,.55-.04Z"/><path class="l" d="M36.89,28v.76h-3.01l.1-.74,2.52-.05,.39,.03h0Z"/><path class="i" d="M36.7,23.71c.06,.18,.14,.35,.15,.53,0,.06-.18,.19-.28,.19-.93,.01-1.87,0-2.84,0,.04-.33-.14-.7,.37-.74l.21-.03h0c.8,.01,1.59,.02,2.39,.03Z"/><path class="l" d="M36.5,22.53l.51,.04c-.02,.17-.04,.33-.05,.48-.06,.35-.34,.22-.54,.25h-2.32l-.3-.14,.13-.63h2.58Z"/><path class="l" d="M37.15,25.56l-.07-.76h3.02l.05,.74c-.98,0-1.92,0-2.86,0h-.13Z"/><path class="l" d="M34.11,29.85l-.14-.67c.95,0,1.82,0,2.68,0,.45,0,.31,.36,.36,.66h-2.9Z"/><path class="l" d="M36.8,25.98l-.09,.6h-3v-.6h3.09Z"/><path class="h" d="M36.81,24.84v.61h-3.23l.13-.61h3.1Z"/><path class="o" d="M36.8,27.07l.03,.1-.03,.49-.5,.03h-2.43l-.1-.56,.39-.14,2.65,.09Z"/><path class="i" d="M40.36,25.55l-.17-.75h2.02v.74l-.58,.04-1.28-.03Z"/><path class="o" d="M37.15,26.99c.87,0,1.74,0,2.61,0,.66,0,.66,0,.66,.67h-3.33l.06-.66Z"/><path class="o" d="M37.21,25.87h.3l2.7,.02v.02c0,.2,.02,.4,.03,.64h-3.19l-.03-.56h0l.18-.12Z"/></svg>